<svg width="27" height="34" viewBox="0 0 27 34" fill="none" xmlns="http://www.w3.org/2000/svg">
<path d="M6.12499 13.4975L6.12396 13.2918L5.97855 13.1464L3.09782 10.2658C3.0978 10.2658 3.09779 10.2658 3.09778 10.2657C2.87512 10.043 2.75 9.74092 2.75 9.42602V1.6875C2.75 1.03165 3.28165 0.5 3.9375 0.5H23.0625C23.7183 0.5 24.25 1.03165 24.25 1.6875V9.42595C24.25 9.58192 24.2193 9.73634 24.1596 9.88042L24.6216 10.0717L24.1596 9.88042C24.1 10.0245 24.0125 10.1554 23.9022 10.2657L21.0214 13.1464L20.876 13.2919L20.875 13.4976C20.8626 16.0677 20.9073 21.2418 23.0655 28.75H3.93277C6.09347 21.2147 6.13785 16.0523 6.12499 13.4975ZM4.5 1.75H4V2.25V9.19301V9.40011L4.14644 9.54656L7.37138 12.7716C7.38681 15.6419 7.40962 20.1286 5.72792 26.8791L5.57325 27.5H6.21309H20.784H21.424L21.2692 26.879C19.59 20.1461 19.6134 15.6489 19.6284 12.7756C19.6284 12.7743 19.6284 12.773 19.6284 12.7717L22.8536 9.54656L23 9.40011V9.19301V2.25V1.75H22.5H19.125H18.625V2.25V5.125H17.375V2.25V1.75H16.875H10.125H9.625V2.25V5.125H8.375V2.25V1.75H7.875H4.5ZM12.0312 17.5V14.0625C12.0312 13.2513 12.6888 12.5938 13.5 12.5938C14.3112 12.5938 14.9688 13.2513 14.9688 14.0625V17.5H12.0312ZM26.5 32.3438V32.9062C26.5 33.0961 26.3461 33.25 26.1562 33.25H0.84375C0.653931 33.25 0.5 33.0961 0.5 32.9062V32.3438C0.5 32.1539 0.653931 32 0.84375 32H26.1562C26.3461 32 26.5 32.1539 26.5 32.3438Z" fill="#F67110" stroke="#CF4646"/>
</svg>
